<svg width="32" height="32" viewBox="0 0 24 24" fill="none" xmlns="http://www.w3.org/2000/svg">
<path d="M7 4V2a1 1 0 0 1 1-1h8a1 1 0 0 1 1 1v2h4a1 1 0 0 1 1 1v2a1 1 0 0 1-1 1h-1v12a2 2 0 0 1-2 2H6a2 2 0 0 1-2-2V8H3a1 1 0 0 1-1-1V5a1 1 0 0 1 1-1h4z" stroke="#666" stroke-width="2" stroke-linecap="round" stroke-linejoin="round"/>
<path d="M10 11v6" stroke="#666" stroke-width="2" stroke-linecap="round" stroke-linejoin="round"/>
<path d="M14 11v6" stroke="#666" stroke-width="2" stroke-linecap="round" stroke-linejoin="round"/>
</svg>
